<svg id="noun_Star_3370197" xmlns="http://www.w3.org/2000/svg" width="13.633" height="12.659" viewBox="0 0 13.633 12.659">
  <path id="Path_26" data-name="Path 26" d="M45.115,52.382H40.639l-1.36-4.059a.493.493,0,0,0-.925,0l-1.36,4.059H32.487a.488.488,0,0,0-.487.487.358.358,0,0,0,.009.082.468.468,0,0,0,.2.344l3.679,2.593-1.412,4.1a.488.488,0,0,0,.167.548.471.471,0,0,0,.274.119.6.6,0,0,0,.3-.11l3.591-2.559,3.591,2.559a.57.57,0,0,0,.3.11.437.437,0,0,0,.271-.119.482.482,0,0,0,.167-.548l-1.412-4.1,3.649-2.617.088-.076a.465.465,0,0,0-.359-.812Z" transform="translate(-32 -48)" fill="#f9dc31"/>
</svg>
